<svg width="240" height="240" viewBox="0 0 240 240" fill="none" xmlns="http://www.w3.org/2000/svg">
  <rect width="240" height="240" rx="56" fill="url(#bg)"/>
  <circle cx="120" cy="96" r="40" fill="#F0C5A0"/>
  <path d="M74 194C80 154 100 138 120 138C140 138 160 154 166 194" fill="#E7B78E"/>
  <path d="M78 98C76 56 100 37 129 37C158 37 180 62 170 104C162 89 151 78 137 70C120 60 99 66 78 98Z" fill="#14283D"/>
  <path d="M92 92C96 90 102 88 110 88" stroke="#14283D" stroke-width="4" stroke-linecap="round"/>
  <path d="M130 88C138 88 144 90 148 92" stroke="#14283D" stroke-width="4" stroke-linecap="round"/>
  <circle cx="100" cy="98" r="4" fill="#14283D"/>
  <circle cx="144" cy="98" r="4" fill="#14283D"/>
  <path d="M106 118C112 123 128 123 134 118" stroke="#9D5F42" stroke-width="4" stroke-linecap="round"/>
  <defs>
    <linearGradient id="bg" x1="24" y1="12" x2="210" y2="222" gradientUnits="userSpaceOnUse">
      <stop stop-color="#67E8F9"/>
      <stop offset="1" stop-color="#1D4ED8"/>
    </linearGradient>
  </defs>
</svg>