<svg width="240" height="240" viewBox="0 0 240 240" fill="none" xmlns="http://www.w3.org/2000/svg">
  <rect width="240" height="240" rx="56" fill="url(#bg)"/>
  <circle cx="120" cy="94" r="42" fill="#FFE1D1"/>
  <path d="M74 194C78 154 102 136 120 136C138 136 162 154 166 194" fill="#FFD8C4"/>
  <path d="M77 88C78 56 98 40 124 40C151 40 170 58 168 96C154 88 135 82 104 82C92 82 84 84 77 88Z" fill="#102B47"/>
  <path d="M86 69C95 56 109 48 127 48C144 48 155 56 160 66C149 61 138 59 121 59C108 59 97 61 86 69Z" fill="#1A4C7D" opacity="0.45"/>
  <circle cx="94" cy="92" r="4" fill="#102B47"/>
  <circle cx="146" cy="92" r="4" fill="#102B47"/>
  <path d="M105 110C112 116 128 116 135 110" stroke="#D7705B" stroke-width="4" stroke-linecap="round"/>
  <defs>
    <linearGradient id="bg" x1="18" y1="18" x2="212" y2="222" gradientUnits="userSpaceOnUse">
      <stop stop-color="#3FE0FF"/>
      <stop offset="1" stop-color="#1D4ED8"/>
    </linearGradient>
  </defs>
</svg>